<svg width="100%" height="100%" viewBox="0 0 143 55" fill="none" xmlns="http://www.w3.org/2000/svg">
  <path d="M45.832 19.568C47.5173 19.568 48.9787 19.8027 50.216 20.272C51.4747 20.72 52.4453 21.3707 53.128 22.224C53.8107 23.0773 54.152 24.08 54.152 25.232C54.152 26.4053 53.8 27.4293 53.096 28.304C52.4133 29.1787 51.4747 29.776 50.28 30.096C51.7093 30.3733 52.8293 31.024 53.64 32.048C54.472 33.072 54.888 34.3093 54.888 35.76C54.888 37.0187 54.536 38.128 53.832 39.088C53.128 40.0267 52.1253 40.752 50.824 41.264C49.5227 41.7547 47.9973 42 46.248 42H35.176V19.568H45.832ZM45.512 28.496C46.3227 28.496 46.9627 28.304 47.432 27.92C47.9013 27.5147 48.136 26.96 48.136 26.256C48.136 25.5733 47.9013 25.0507 47.432 24.688C46.9627 24.304 46.3227 24.1227 45.512 24.144H41.032V28.496H45.512ZM45.512 37.456C46.536 37.456 47.3467 37.2427 47.944 36.816C48.5413 36.3893 48.84 35.792 48.84 35.024C48.84 34.32 48.5413 33.7653 47.944 33.36C47.3467 32.9333 46.536 32.7307 45.512 32.752H41.032V37.456H45.512ZM74.9783 24.688V42H69.2823V39.184C68.1089 41.1893 66.2636 42.2133 63.7463 42.256C61.8689 42.256 60.3649 41.6587 59.2343 40.464C58.1249 39.248 57.5703 37.6373 57.5703 35.632V24.688H63.2663V34C63.2663 34.9813 63.5116 35.7493 64.0023 36.304C64.5143 36.8587 65.1969 37.136 66.0503 37.136C67.0529 37.1147 67.8423 36.752 68.4183 36.048C68.9943 35.3227 69.2823 34.384 69.2823 33.232V24.688H74.9783ZM78.5323 24.688L93.7003 24.72V28.176L85.3802 37.648H94.0203V42H78.2443V38.544L86.5642 29.072H78.5323V24.688ZM96.2823 24.688L111.45 24.72V28.176L103.13 37.648H111.77V42H95.9943V38.544L104.314 29.072H96.2823V24.688ZM114.992 18.256H120.688V42H114.992V18.256ZM132.823 24.496C135.639 24.496 137.805 25.328 139.319 26.992C140.834 28.656 141.591 30.9387 141.591 33.84C141.591 34.288 141.581 34.6293 141.559 34.864H129.527C129.805 35.8453 130.285 36.6027 130.967 37.136C131.65 37.648 132.482 37.904 133.463 37.904C134.21 37.904 134.925 37.7547 135.607 37.456C136.311 37.1573 136.951 36.72 137.527 36.144L140.503 39.12C139.607 40.1227 138.519 40.8907 137.239 41.424C135.981 41.936 134.551 42.192 132.951 42.192C131.095 42.192 129.474 41.8293 128.087 41.104C126.701 40.3787 125.634 39.3547 124.887 38.032C124.162 36.7093 123.799 35.1733 123.799 33.424C123.799 31.6533 124.173 30.096 124.919 28.752C125.666 27.3867 126.722 26.3413 128.087 25.616C129.453 24.8693 131.031 24.496 132.823 24.496ZM136.055 31.824C136.055 30.8213 135.757 30.0213 135.159 29.424C134.583 28.8053 133.815 28.496 132.855 28.496C131.959 28.496 131.202 28.7947 130.583 29.392C129.986 29.9893 129.591 30.8 129.399 31.824H136.055Z" fill="#242B31"/>
  <path d="M14.2456 22.1256C16.403 17.1469 23.8333 18.6875 23.8333 24.1137V39.0306C23.8333 44.3418 27.9853 48.7265 33.2887 49.0157L143 55H7.61592C4.0177 55 1.59747 51.3135 3.02815 48.012L14.2456 22.1256Z" fill="#3D8BEA"/>
</svg>
